<svg id="Camada_1" data-name="Camada 1" xmlns="http://www.w3.org/2000/svg" viewBox="0 0 749.89 321.92"><defs><style>.cls-1{fill:#30557d;}</style></defs><title>logotipoLinkest</title><path class="cls-1" d="M167.41,320.07H129.54a46.55,46.55,0,0,1-31.23-11.87c-9.31-8.05-14-19.17-14-33v-101h19.3V274.78c0,8.42,2.57,15.12,7.87,20.47s12.21,7.94,21.23,7.94h34.73v16.88Z" transform="translate(-84.28 -102.87)"/><path class="cls-1" d="M330.05,320.07H311.65V252.84c0-9.27-2.76-16.6-8.45-22.42a29.08,29.08,0,0,0-41.29,0c-5.68,5.82-8.44,13.15-8.44,22.42v67.23H235.06V251.74c0-13.9,4.61-25.45,13.69-34.35S269.18,204,282.55,204c13.53,0,24.94,4.46,33.92,13.26s13.58,20.42,13.58,34.46v68.33Z" transform="translate(-84.28 -102.87)"/><path class="cls-1" d="M438.25,320.07H419.84V287.35a20.44,20.44,0,0,0-6-14.91c-4-4.12-9.21-6.12-15.93-6.12H372.86v53.75H354.45V173.16h19.11l-0.66,75.2h12.48a13.27,13.27,0,0,0,9.83-4c3.41-3.4,8.37-10,14.73-19.5L424,204.07l22.2-.08-20.66,31c-2.54,3.89-5.32,8-8.23,12.18q-1.3,1.87-2.67,3.51a35.5,35.5,0,0,1,13.49,8.37c6.71,6.55,10.12,15.91,10.12,27.84v33.17Z" transform="translate(-84.28 -102.87)"/><rect class="cls-1" x="107.95" y="101.57" width="18.94" height="115.71"/><path class="cls-1" d="M834.17,319.08H814c-11.31,0-20.21-3.15-26.45-9.38s-9.4-15-9.4-26V173.92h18.41V203h37.62v18H796.54v63.58c0,5.29,1.38,9.29,4.22,12.24s6.52,4.31,11.44,4.31h22v18Z" transform="translate(-84.28 -102.87)"/><path class="cls-1" d="M734.73,167.87L632.11,108.08c-5.77-3.36-13.43-5.21-21.58-5.21-8,0-15.53,1.79-21.21,5l-103.1,59c-11.83,6.77-21.49,23.35-21.54,37l-0.46,118.77c-0.05,13.63,9.48,30.29,21.25,37.15l102.62,59.79c5.77,3.36,13.43,5.21,21.59,5.21,8,0,15.53-1.79,21.21-5l103.09-59c11.83-6.77,21.49-23.36,21.54-37L756,205C756,191.39,746.51,174.73,734.73,167.87ZM663.63,318.2c-15.06-3.29-33.92-18.73-40.67-32.39l10.14-11c7.16,10.55,17.48,25.23,33.59,29.75,18,5.06,37.24-8.24,43-18.51,8.76-15.68,7.56-35.93-1.89-49.77-9.45-12.1-26.94-17.37-47.56-18.69l-65.41,76.55c-16,19.72-40.37,33.84-70.86,20.92-44.33-18.77-45.37-81.5-3.94-104.51,18.52-10.29,37.19-8,54.46,3.83,3.51,2.41,7.47,6.12,17,15.13-1.81,2.92-40,40.19-45.84,46L533.64,265l34.44-33.48c-18.43-25.49-52.3-6.88-59.91,16.84-9.61,30,11.94,58.29,41.08,55.52,16-1.52,23-10.44,31.42-18,11.56-10.44,25.7-29.19,35.89-40,5.56-5.87,32.9-36.95,35.79-42.34,26.68,0,56,4.93,70.71,30.44C746.52,274.78,710.43,328.41,663.63,318.2Z" transform="translate(-84.28 -102.87)"/></svg>