<svg id="Layer_1" data-name="Layer 1" xmlns="http://www.w3.org/2000/svg" viewBox="0 0 678.64 723.26"><defs><style>.cls-1{fill:#ec1c24;}.cls-2{fill:#e61e25;}.cls-3{fill:#22160f;}.cls-4{fill:#231810;}.cls-5{fill:#21150e;}</style></defs><title>logotipoCodeGirl</title><path class="cls-1" d="M368.43,308.34c24.61-7.38,90.36-8.67,132.81-6.21,39.78,2.3,62.52,15.26,115.48,16.89,31-1.87,80-14.58,119.77-16.89,42.18-2.45,106.13-1.09,131.1,6.21-0.07-3.51.55-2,.55-2-24.61-7.38-89.83-12.3-132.27-9.84-39.78,2.31-88.73,15-119.78,16.89-53-1.63-75.69-14.58-115.47-16.89C458.17,294,393,298.95,368.36,306.33Z" transform="translate(-275.96 -21.35)"/><path class="cls-2" d="M868.14,306.33c-24.61-7.38-89.83-12.3-132.27-9.84-39.78,2.31-88.73,15-119.78,16.89-53-1.63-75.69-14.58-115.47-16.89C458.17,294,393,298.95,368.36,306.33c0,0-1.23,38.76,1.23,77.51a33.15,33.15,0,0,1,17.23,19.08c4.92,14.15,6.66,59.91,76.82,61.06,73.82,1.21,113-3.13,124.95-81.11,0,0,4.7-30.37,28-27.87,20.33,0,24.92,28.19,24.92,28.19C653.72,465.8,697,466.63,770.83,464c66.56-2.39,75.4-46,80.32-60.12a37.87,37.87,0,0,1,15.77-20C869.37,345.09,868.14,306.33,868.14,306.33Zm-295.4,74.38c-8.9,39.42-23.31,65.1-67.34,66.87-44.55,1.8-96.6,7-107.74-63.15-2.88-18.17-11.61-64.08,34.37-67.34s100.31,4.18,115.17,8.36S583.4,333.47,572.74,380.71Zm266.7,1.38c-4.44,58-49.34,64.23-77.26,65.63s-96.13,3.17-104.73-59.11c-7.22-52.27,12.1-61,19.08-62.84,35.84-9.55,104.25-12.1,126.59-8.85S844.47,316.29,839.44,382.09Z" transform="translate(-275.96 -21.35)"/><path class="cls-3" d="M709.15,58.91l5.7-.34s1.63-6.58,2.68-7.38c5.89-4.44,22.32-1,29.52.67,6.69,1.53,18.81,8.55,24.49,12.41,10.19,6.94,27.79,24.7,35.21,34.54,5.9,7.82,14,25.82,18.45,34.54,7.92,15.56,42.6,154.6,42.6,154.6l-77.47-4.7s-24.6-65.14-26.83-70.76c-10.62-26.83-47.62-56.68-47.62-56.68s0.11,20.42-.67,27.16c-0.7,6.06-3.71,17.94-5.36,23.81-1.75,6.24-6.24,18.49-9.39,24.15-2.71,4.86-9.06,13.08-13.42,17.77-7.41,8-19.12,21.46-34.54,26.49L598.14,293s32.79-25.29,38.57-31.52c6-6.5,15.83-21.62,19.11-29.85,1.81-4.52,7.17-22.51,3.69-19.12-56,54.56-121,65-123.08,64.39-40.8-11.16-163,10.06-163,10.06l3.35-30.18s6.15-39.61,9.06-52.65,10.7-38.88,16.43-51c8.29-17.49,31.65-49,44.94-63,13-13.8,44.5-35.72,61.71-44.27C533.34,33.71,588,21.35,615.24,21.35c13.75,0,41.84,1.77,55,6,10.46,3.39,37.9,23.14,37.9,23.14Z" transform="translate(-275.96 -21.35)"/><path class="cls-3" d="M467.35,328.32s-22.3,1.44-29.29,4.25c-4.4,1.77-13.33,4.7-15.65,8.49-7.44,12.16-2.9,43.68.22,57,1.43,6.1,8.54,17.39,13.64,21,4,2.87,27.5,5.14,27.5,5.14-3.69-49.58-9.21-37.63-6.71-70.87,1.08-14.41,10.29-25,10.29-25" transform="translate(-275.96 -21.35)"/><path class="cls-3" d="M547.07,366s0.5,16.15-2.76,20c-3.72,4.41-14,12-19.72,12-6.67-.07-20.65-6.07-23.87-11.91-3.08-5.58-4.26-20-1-25.47,2.88-4.92,13-12.19,18.62-13.16,3.87-.67,15.55,2.19,15.55,2.19s-9.65,15.86-11.2,20.83C522.38,371.33,547.07,366,547.07,366Z" transform="translate(-275.96 -21.35)"/><path class="cls-3" d="M722.49,361s2.08,16-.79,20.19C718.43,385.9,709,394.5,703.25,395c-6.65.59-21.15-4-24.93-9.51-3.61-5.25-6.19-19.46-3.52-25.25,2.38-5.18,11.74-13.4,17.24-14.92,3.78-1,15.69.66,15.69,0.66s-8.05,16.74-9.11,21.82C698.45,368.64,722.49,361,722.49,361Z" transform="translate(-275.96 -21.35)"/><path class="cls-4" d="M818.33,331.84c5.47,10.49,7.8,40.5,6.5,54.29-0.58,6.16-3.34,19-7.72,23.7-4.71,5.11-25,12.31-25,12.31s7.94-29.82,9.09-40c1.47-13,.11-52.26.11-52.26S816.41,328.15,818.33,331.84Z" transform="translate(-275.96 -21.35)"/><path class="cls-3" d="M384,434.3s14.5,20,21,25.26c6.73,5.44,31.3,14.76,31.3,14.76s14.19,3.28,19,3.8c5.72,0.62,23,.45,23,0.45s4.28,27.33,7.82,35.77c3.44,8.2,12.67,24,19.45,29.74,4.41,3.73,21,11.85,21,11.85s-17.1,1.11-22.58.23c-7.16-1.14-21.41-6.15-26.83-11-4.26-3.77-10.32-13.76-12.52-19-2.13-5.07-6.48-21-6.48-21l-1.79-9.62S455,508.63,455.05,513c0.14,15.38,5.81,60.36,5.81,60.36s-27-18.16-34.21-26.16c-8.51-9.44-23.43-30.6-27.94-42.48C392.22,487.63,384,434.3,384,434.3Z" transform="translate(-275.96 -21.35)"/><path class="cls-3" d="M851.23,433.41s-14.5,20-21,25.26c-6.73,5.44-31.3,14.76-31.3,14.76s-14.19,3.28-19,3.81c-5.72.62-23,.45-23,0.45s-4.29,27.32-7.83,35.76c-3.44,8.2-12.67,24-19.45,29.75-4.41,3.73-21,11.85-21,11.85s17.1,1.1,22.58.22c7.15-1.14,21.41-6.15,26.83-11,4.25-3.78,10.31-13.76,12.52-19,2.13-5.08,6.49-21,6.49-21l1.79-9.62s1.38,13.06,1.34,17.44c-0.14,15.39-5.81,60.37-5.81,60.37s27-18.16,34.21-26.16c8.5-9.44,23.43-30.6,27.94-42.48C843,486.74,851.23,433.41,851.23,433.41Z" transform="translate(-275.96 -21.35)"/><path class="cls-3" d="M412.66,724.89A52.15,52.15,0,0,1,402,727.65a78.54,78.54,0,0,1-12.44,1,67.69,67.69,0,0,1-23-3.61,45.24,45.24,0,0,1-16.83-10.38,43.72,43.72,0,0,1-10.3-16.52,70.42,70.42,0,0,1,.19-44.42,49.41,49.41,0,0,1,10.65-17.49,48.4,48.4,0,0,1,16.87-11.39,57.94,57.94,0,0,1,22.27-4.08q3.27,0,6.45.27t6.1,0.78a54.41,54.41,0,0,1,5.4,1.2,5.5,5.5,0,0,1,1.66.46l-0.53,11.17c-3.15-1-3.44-.87-7.16-1.57a60.71,60.71,0,0,0-11.25-1,47.46,47.46,0,0,0-16.33,2.76A36.23,36.23,0,0,0,360.57,643a38.76,38.76,0,0,0-8.81,13.6,51,51,0,0,0-3.23,18.93,52.47,52.47,0,0,0,3,18.62,33.16,33.16,0,0,0,21.76,20.71,56.27,56.27,0,0,0,17.27,2.49q2.6,0,5.51-.27t5.86-.78q3-.5,5.75-1.17" transform="translate(-275.96 -21.35)"/><path class="cls-5" d="M389.57,730.12a69.49,69.49,0,0,1-23.52-3.7,46.93,46.93,0,0,1-17.38-10.73A45.4,45.4,0,0,1,338,698.61a71.91,71.91,0,0,1,.2-45.44,51.12,51.12,0,0,1,11-18,50.1,50.1,0,0,1,17.38-11.74,59.68,59.68,0,0,1,22.84-4.2c2.19,0,4.4.09,6.58,0.28s4.26,0.45,6.23.8a56.34,56.34,0,0,1,5.55,1.24l0.6,0.15a2.89,2.89,0,0,1,1.25.38l1,0.41-0.67,14.18L408,636a22.77,22.77,0,0,0-4.38-1.07c-0.67-.11-1.48-0.24-2.59-0.45a59.47,59.47,0,0,0-11-1,46.17,46.17,0,0,0-15.82,2.67,34.89,34.89,0,0,0-12.65,7.9,37.44,37.44,0,0,0-8.47,13.09A49.81,49.81,0,0,0,350,675.52a51.23,51.23,0,0,0,2.89,18.09,31.66,31.66,0,0,0,20.81,19.82,55.05,55.05,0,0,0,16.81,2.42c1.69,0,3.49-.09,5.37-0.26s3.85-.43,5.75-0.76,3.8-.71,5.66-1.15l0.69,2.92c-1.92.45-3.88,0.85-5.84,1.18s-4,.61-6,0.79-3.87.28-5.65,0.28a58,58,0,0,1-17.73-2.56,34.65,34.65,0,0,1-22.7-21.61A54.2,54.2,0,0,1,347,675.52,52.76,52.76,0,0,1,350.36,656a40.41,40.41,0,0,1,9.16-14.12,37.88,37.88,0,0,1,13.72-8.58,49.19,49.19,0,0,1,16.84-2.85,62.48,62.48,0,0,1,11.53,1.08c1.08,0.2,1.87.33,2.52,0.44a25.91,25.91,0,0,1,3,.6l0.38-8.06-0.51-.14a53.32,53.32,0,0,0-5.26-1.17c-1.89-.33-3.9-0.58-6-0.76s-4.22-.27-6.32-0.27a56.72,56.72,0,0,0-21.7,4,47.12,47.12,0,0,0-16.35,11,48.15,48.15,0,0,0-10.33,17,68.93,68.93,0,0,0-.19,43.41,42.44,42.44,0,0,0,9.94,16,44,44,0,0,0,16.28,10,66.52,66.52,0,0,0,22.5,3.52,77.39,77.39,0,0,0,12.2-1,50.92,50.92,0,0,0,10.34-2.68l1.09,2.79a53.86,53.86,0,0,1-11,2.84A80.49,80.49,0,0,1,389.57,730.12Z" transform="translate(-275.96 -21.35)"/><path class="cls-3" d="M489.21,676.39a33.54,33.54,0,0,0-7-11.72,30.68,30.68,0,0,0-11.12-7.57,39,39,0,0,0-14.8-2.67,38.29,38.29,0,0,0-14.61,2.67,31.13,31.13,0,0,0-11.12,7.57,34.18,34.18,0,0,0-7.09,11.72A43.83,43.83,0,0,0,421,691.6a44.87,44.87,0,0,0,2.43,15.13,32.81,32.81,0,0,0,7,11.69,31.36,31.36,0,0,0,11.12,7.53,39,39,0,0,0,14.84,2.67A38.06,38.06,0,0,0,471,725.95,31.45,31.45,0,0,0,482,718.42a33.78,33.78,0,0,0,7.09-11.69,43.62,43.62,0,0,0,2.51-15.13A45.18,45.18,0,0,0,489.21,676.39Zm-10.43,25.55a23.16,23.16,0,0,1-4.85,8,21.53,21.53,0,0,1-7.59,5.15,26,26,0,0,1-10,1.83,26.7,26.7,0,0,1-10.16-1.83,21.5,21.5,0,0,1-7.61-5.15,22.5,22.5,0,0,1-4.8-8,30.81,30.81,0,0,1-1.66-10.36,30,30,0,0,1,1.72-10.41,23.36,23.36,0,0,1,4.85-8,21.22,21.22,0,0,1,7.61-5.18,26.2,26.2,0,0,1,10-1.83A26.71,26.71,0,0,1,466.44,668a20.91,20.91,0,0,1,7.61,5.18,22.93,22.93,0,0,1,4.77,8,30.92,30.92,0,0,1,1.66,10.41A29.91,29.91,0,0,1,478.78,701.94Z" transform="translate(-275.96 -21.35)"/><path class="cls-5" d="M456.39,730.12A40.67,40.67,0,0,1,441,727.34a33,33,0,0,1-11.65-7.89A34.45,34.45,0,0,1,422,707.23a46.57,46.57,0,0,1-2.52-15.63,45.52,45.52,0,0,1,2.6-15.73,35.82,35.82,0,0,1,7.4-12.23,32.76,32.76,0,0,1,11.65-7.93,40,40,0,0,1,15.17-2.78,40.7,40.7,0,0,1,15.37,2.78,32.31,32.31,0,0,1,11.66,7.94,35.19,35.19,0,0,1,7.28,12.24h0a46.88,46.88,0,0,1,2.51,15.71,45.31,45.31,0,0,1-2.6,15.65,35.44,35.44,0,0,1-7.41,12.2,33.08,33.08,0,0,1-11.6,7.89A39.72,39.72,0,0,1,456.39,730.12Zm-0.08-74.19a37,37,0,0,0-14,2.56,29.77,29.77,0,0,0-10.59,7.2,32.84,32.84,0,0,0-6.77,11.21,42.55,42.55,0,0,0-2.42,14.69,43.6,43.6,0,0,0,2.34,14.63,31.47,31.47,0,0,0,6.69,11.16,30,30,0,0,0,10.6,7.17,37.69,37.69,0,0,0,14.27,2.56,36.75,36.75,0,0,0,14-2.56,30.11,30.11,0,0,0,10.56-7.17,32.46,32.46,0,0,0,6.77-11.17,42.34,42.34,0,0,0,2.41-14.62,43.91,43.91,0,0,0-2.34-14.71h0a32.21,32.21,0,0,0-6.66-11.21,29.34,29.34,0,0,0-10.59-7.2A37.73,37.73,0,0,0,456.31,655.93Zm0.05,62.49a28.31,28.31,0,0,1-10.73-1.94A23.06,23.06,0,0,1,437.5,711a24.07,24.07,0,0,1-5.12-8.53,32.44,32.44,0,0,1-1.75-10.87,31.64,31.64,0,0,1,1.81-10.93,25,25,0,0,1,5.16-8.53,22.81,22.81,0,0,1,8.14-5.54,27.8,27.8,0,0,1,10.57-1.94,28.31,28.31,0,0,1,10.7,1.94,22.5,22.5,0,0,1,8.15,5.55,24.53,24.53,0,0,1,5.08,8.54A32.57,32.57,0,0,1,482,691.57a31.53,31.53,0,0,1-1.81,10.88h0A24.77,24.77,0,0,1,475,711a23.12,23.12,0,0,1-8.11,5.51A27.66,27.66,0,0,1,456.36,718.42Zm-0.05-50.78a24.83,24.83,0,0,0-9.43,1.72,19.83,19.83,0,0,0-7.09,4.82,22,22,0,0,0-4.54,7.52,28.67,28.67,0,0,0-1.62,9.89,29.46,29.46,0,0,0,1.57,9.86,21.1,21.1,0,0,0,4.48,7.47,20.09,20.09,0,0,0,7.09,4.79,25.33,25.33,0,0,0,9.59,1.72,24.69,24.69,0,0,0,9.4-1.71,20.13,20.13,0,0,0,7.06-4.79,21.77,21.77,0,0,0,4.54-7.49,28.56,28.56,0,0,0,1.62-9.84,29.57,29.57,0,0,0-1.58-9.91,21.53,21.53,0,0,0-4.46-7.51,19.53,19.53,0,0,0-7.08-4.81A25.33,25.33,0,0,0,456.31,667.63Z" transform="translate(-275.96 -21.35)"/><path class="cls-3" d="M559.1,619.34v43.55h-0.24a27.83,27.83,0,0,0-9.12-6.31,30.57,30.57,0,0,0-12-2.15,35.2,35.2,0,0,0-7.1.78,31.2,31.2,0,0,0-7.41,2.56,34.7,34.7,0,0,0-7.05,4.64,27.79,27.79,0,0,0-5.95,7.09,39.09,39.09,0,0,0-4.08,9.9,49.64,49.64,0,0,0-1.55,13,43.61,43.61,0,0,0,2.85,16.73,31.77,31.77,0,0,0,7.49,11.2,28.34,28.34,0,0,0,10.58,6.31,38.36,38.36,0,0,0,12.13,2,31.9,31.9,0,0,0,7.81-.85,25.19,25.19,0,0,0,5.95-2.26,22.94,22.94,0,0,0,4.48-3.15,36.24,36.24,0,0,0,3.33-3.45h0.32l2.54,7.87h9.27V619.34H559.1Zm2.68,82.6a23.09,23.09,0,0,1-4.85,8,21.5,21.5,0,0,1-7.59,5.16,26.07,26.07,0,0,1-10,1.83,26.73,26.73,0,0,1-10.16-1.83,21.44,21.44,0,0,1-7.61-5.16,22.45,22.45,0,0,1-4.8-8,30.79,30.79,0,0,1-1.66-10.36,30,30,0,0,1,1.72-10.41,23.35,23.35,0,0,1,4.85-8,21.26,21.26,0,0,1,7.61-5.18,26.26,26.26,0,0,1,10-1.83A26.77,26.77,0,0,1,549.45,668a20.94,20.94,0,0,1,7.61,5.18,22.92,22.92,0,0,1,4.77,8,31,31,0,0,1,1.66,10.41A29.88,29.88,0,0,1,561.78,701.94Z" transform="translate(-275.96 -21.35)"/><path class="cls-5" d="M537.7,730.12a40,40,0,0,1-12.6-2A30,30,0,0,1,514,721.44a33.38,33.38,0,0,1-7.85-11.72,45.27,45.27,0,0,1-3-17.31,51.36,51.36,0,0,1,1.6-13.42A40.77,40.77,0,0,1,509,668.72a29.41,29.41,0,0,1,6.27-7.46,36.32,36.32,0,0,1,7.36-4.83,32.82,32.82,0,0,1,7.77-2.68,36.86,36.86,0,0,1,7.4-.81,32.19,32.19,0,0,1,12.55,2.27,28.92,28.92,0,0,1,7.27,4.47V617.84h15.28V728.26H561l-2.16-6.68q-0.9.93-1.92,1.88a24.53,24.53,0,0,1-4.77,3.36,26.82,26.82,0,0,1-6.3,2.4A33.54,33.54,0,0,1,537.7,730.12Zm0.08-74.19a33.85,33.85,0,0,0-6.79.75,29.82,29.82,0,0,0-7.06,2.44,33.3,33.3,0,0,0-6.75,4.44,26.42,26.42,0,0,0-5.62,6.71,37.82,37.82,0,0,0-3.92,9.53,48.39,48.39,0,0,0-1.49,12.63,42.33,42.33,0,0,0,2.74,16.15A30.42,30.42,0,0,0,516,719.25a27,27,0,0,0,10,6,37.06,37.06,0,0,0,11.66,1.89,30.57,30.57,0,0,0,7.44-.81,23.84,23.84,0,0,0,5.6-2.12,21.51,21.51,0,0,0,4.19-2.94,35,35,0,0,0,3.19-3.31l0.45-.54h2.11l2.54,7.87h6.68V620.84H560.6v43.55h-2.37l-0.44-.45a26.45,26.45,0,0,0-8.63-6A29.22,29.22,0,0,0,537.78,655.93Zm1.59,62.49a28.32,28.32,0,0,1-10.73-1.94A23,23,0,0,1,520.5,711a24,24,0,0,1-5.12-8.52,32.42,32.42,0,0,1-1.75-10.87,31.65,31.65,0,0,1,1.81-10.92,25,25,0,0,1,5.16-8.53,22.84,22.84,0,0,1,8.14-5.55,27.86,27.86,0,0,1,10.57-1.94,28.38,28.38,0,0,1,10.7,1.94,22.53,22.53,0,0,1,8.15,5.55,24.52,24.52,0,0,1,5.09,8.54A32.58,32.58,0,0,1,565,691.57a31.51,31.51,0,0,1-1.81,10.88h0A24.69,24.69,0,0,1,558,711a23.1,23.1,0,0,1-8.11,5.51A27.69,27.69,0,0,1,539.37,718.42Zm-0.05-50.79a24.89,24.89,0,0,0-9.43,1.72,19.88,19.88,0,0,0-7.08,4.82,22,22,0,0,0-4.54,7.52,28.66,28.66,0,0,0-1.62,9.89,29.44,29.44,0,0,0,1.57,9.86,21.05,21.05,0,0,0,4.48,7.47,20,20,0,0,0,7.09,4.8,25.36,25.36,0,0,0,9.59,1.71,24.71,24.71,0,0,0,9.4-1.71,20.11,20.11,0,0,0,7.06-4.8,21.72,21.72,0,0,0,4.54-7.49h0a28.52,28.52,0,0,0,1.62-9.85,29.59,29.59,0,0,0-1.58-9.91,21.53,21.53,0,0,0-4.46-7.51,19.55,19.55,0,0,0-7.08-4.81A25.4,25.4,0,0,0,539.32,667.63Z" transform="translate(-275.96 -21.35)"/><path class="cls-3" d="M623.57,718.6a54.17,54.17,0,0,0,10.42-.93,62.87,62.87,0,0,0,9.38-2.63v9.57a37.5,37.5,0,0,1-9.35,2.93,62.85,62.85,0,0,1-11.94,1.08,50.65,50.65,0,0,1-14.21-1.93,29.42,29.42,0,0,1-11.5-6.23,29,29,0,0,1-7.61-11.24A45.46,45.46,0,0,1,586,692.49a47.52,47.52,0,0,1,2.66-16.73,35.19,35.19,0,0,1,7.1-11.83A28.9,28.9,0,0,1,606,656.8a31.37,31.37,0,0,1,12.06-2.37,30.74,30.74,0,0,1,11.07,2,22.65,22.65,0,0,1,8.92,6.19,30.25,30.25,0,0,1,6,10.91,51.82,51.82,0,0,1,2.19,16V691q0,0.63-.07,2.86H597.45a28.78,28.78,0,0,0,2,11.46,20.15,20.15,0,0,0,5.56,7.64,22.13,22.13,0,0,0,8.27,4.27A37.66,37.66,0,0,0,623.57,718.6ZM617.5,664.3a17.6,17.6,0,0,0-7.4,1.56,19.17,19.17,0,0,0-6,4.23,21.44,21.44,0,0,0-4.13,6.27,24.58,24.58,0,0,0-2,7.68H634.1a26.61,26.61,0,0,0-1.09-7.75,18.86,18.86,0,0,0-3.19-6.27,14.86,14.86,0,0,0-5.18-4.19A15.89,15.89,0,0,0,617.5,664.3Z" transform="translate(-275.96 -21.35)"/><path class="cls-5" d="M622.08,730.12a52.4,52.4,0,0,1-14.62-2,31,31,0,0,1-12.07-6.55,30.58,30.58,0,0,1-8-11.81,47.15,47.15,0,0,1-2.85-17.28,49.23,49.23,0,0,1,2.76-17.26,36.83,36.83,0,0,1,7.41-12.33,30.52,30.52,0,0,1,10.74-7.48,33,33,0,0,1,12.63-2.49,32.38,32.38,0,0,1,11.6,2.07,24.25,24.25,0,0,1,9.5,6.6A31.87,31.87,0,0,1,645.44,673a53.53,53.53,0,0,1,2.26,16.49V691q0,0.64-.08,2.91l0,1.45H599a26,26,0,0,0,1.89,9.37,18.75,18.75,0,0,0,5.15,7.08,20.73,20.73,0,0,0,7.72,4,36.36,36.36,0,0,0,9.83,1.28,52.92,52.92,0,0,0,10.13-.9,61.52,61.52,0,0,0,9.16-2.57l2-.74v12.65L644,726a39.14,39.14,0,0,1-9.73,3.06A64.65,64.65,0,0,1,622.08,730.12Zm-4-74.19a30,30,0,0,0-11.49,2.26,27.56,27.56,0,0,0-9.69,6.76,33.86,33.86,0,0,0-6.8,11.33,46.27,46.27,0,0,0-2.57,16.2,44.2,44.2,0,0,0,2.64,16.18,27.61,27.61,0,0,0,7.21,10.67,28.06,28.06,0,0,0,10.92,5.92,49.4,49.4,0,0,0,13.79,1.87,61.65,61.65,0,0,0,11.66-1,38.16,38.16,0,0,0,8.13-2.41v-6.51a64,64,0,0,1-7.59,2,55.88,55.88,0,0,1-10.71,1,39.34,39.34,0,0,1-10.64-1.39,23.71,23.71,0,0,1-8.82-4.56,21.72,21.72,0,0,1-6-8.2A30.39,30.39,0,0,1,596,693.9v-1.5h48.71q0-1,0-1.36v-1.52A50.57,50.57,0,0,0,642.58,674a28.91,28.91,0,0,0-5.65-10.38,21.28,21.28,0,0,0-8.33-5.79A29.39,29.39,0,0,0,618.07,655.93Zm17.53,29.6H596.4l0.15-1.64a26.19,26.19,0,0,1,2.07-8.14A23,23,0,0,1,603,669a20.74,20.74,0,0,1,6.44-4.56,19.17,19.17,0,0,1,8-1.69,17.45,17.45,0,0,1,7.8,1.68,16.43,16.43,0,0,1,5.7,4.61,20.45,20.45,0,0,1,3.45,6.76A28.25,28.25,0,0,1,635.6,684v1.5Zm-35.86-3h32.82a24.46,24.46,0,0,0-1-5.82,17.47,17.47,0,0,0-2.94-5.77,13.45,13.45,0,0,0-4.67-3.77,14.5,14.5,0,0,0-6.47-1.37,16.21,16.21,0,0,0-6.78,1.42,17.77,17.77,0,0,0-5.51,3.9,20,20,0,0,0-3.84,5.83A22.8,22.8,0,0,0,599.75,682.53Z" transform="translate(-275.96 -21.35)"/><path class="cls-3" d="M756,684.43H732.15V673h36.54v50.51a26.43,26.43,0,0,1-4.8,1.76q-3.16.9-7.22,1.68T748,728.15a91,91,0,0,1-9.17.47A70.27,70.27,0,0,1,715.09,725a47.25,47.25,0,0,1-17.21-10.38,43.47,43.47,0,0,1-10.54-16.32,60.66,60.66,0,0,1-3.59-21.39,65.62,65.62,0,0,1,3.94-23.26,49.29,49.29,0,0,1,11.4-17.88,50.91,50.91,0,0,1,18-11.44,65.13,65.13,0,0,1,23.3-4q3.43,0,6.87.27t6.56,0.78q3.12,0.51,5.78,1.21c1.77,0.47,5.56.92,6.76,1.44l0.28,11.1c-3.12-1-9.3-1.73-13.36-2.43a71.45,71.45,0,0,0-12.18-1.05,53.27,53.27,0,0,0-17,2.7,40.6,40.6,0,0,0-14.25,8.16,39.48,39.48,0,0,0-9.84,13.7,47.16,47.16,0,0,0-3.67,19.32,52,52,0,0,0,3,18.74,34.18,34.18,0,0,0,8.62,13,34.78,34.78,0,0,0,13.53,7.61,59.68,59.68,0,0,0,17.69,2.46,83.46,83.46,0,0,0,8.9-.47A56.59,56.59,0,0,0,756,715.5V684.43Z" transform="translate(-275.96 -21.35)"/><path class="cls-5" d="M738.78,730.12a72.08,72.08,0,0,1-24.2-3.75,48.94,48.94,0,0,1-17.75-10.72,45.14,45.14,0,0,1-10.9-16.87,62.43,62.43,0,0,1-3.69-21.92,67.4,67.4,0,0,1,4-23.79A51,51,0,0,1,698,634.65a52.64,52.64,0,0,1,18.57-11.78,66.93,66.93,0,0,1,23.84-4.12c2.3,0,4.65.09,7,.28s4.56,0.45,6.68.8,4.08,0.75,5.92,1.24c0.67,0.18,1.75.37,2.78,0.55a22.91,22.91,0,0,1,4.19,1l0.88,0.38,0.35,14.19-2-.67a67.57,67.57,0,0,0-9.15-1.75c-1.43-.21-2.8-0.42-4-0.63a70.36,70.36,0,0,0-11.92-1,52,52,0,0,0-16.5,2.62,39.28,39.28,0,0,0-13.73,7.86,38.17,38.17,0,0,0-9.46,13.19,45.91,45.91,0,0,0-3.54,18.71,50.71,50.71,0,0,0,2.94,18.2,32.84,32.84,0,0,0,8.24,12.48,33.45,33.45,0,0,0,13,7.28,58.49,58.49,0,0,0,17.24,2.39,82.56,82.56,0,0,0,8.74-.46,58.89,58.89,0,0,0,6.46-1V685.93H730.65V671.46h39.54v52.92l-0.8.42a27.5,27.5,0,0,1-5.08,1.87c-2.12.6-4.59,1.18-7.34,1.71s-5.73,1-8.84,1.26A92.68,92.68,0,0,1,738.78,730.12Zm1.64-108.36a63.92,63.92,0,0,0-22.77,3.92,49.65,49.65,0,0,0-17.52,11.1,48,48,0,0,0-11,17.34,64.41,64.41,0,0,0-3.84,22.74,59.45,59.45,0,0,0,3.5,20.87,42.18,42.18,0,0,0,10.17,15.76,46,46,0,0,0,16.68,10.05,69.11,69.11,0,0,0,23.19,3.58,89.86,89.86,0,0,0,9-.46c3-.3,5.91-0.72,8.58-1.23s5.05-1.07,7.09-1.65a31.56,31.56,0,0,0,3.71-1.26V674.46H733.65v8.47h23.81v33.74l-1.13.29a58.3,58.3,0,0,1-8,1.36,85.17,85.17,0,0,1-9.05.48,61.45,61.45,0,0,1-18.13-2.53,36.43,36.43,0,0,1-14.1-7.94,35.82,35.82,0,0,1-9-13.6,53.65,53.65,0,0,1-3.14-19.28,48.86,48.86,0,0,1,3.8-19.93,41.16,41.16,0,0,1,10.21-14.21,42.28,42.28,0,0,1,14.77-8.46,55,55,0,0,1,17.45-2.77,73.36,73.36,0,0,1,12.43,1.08c1.17,0.2,2.52.41,3.93,0.62,2.68,0.4,5.43.81,7.63,1.32l-0.2-8c-0.75-.17-1.76-0.35-2.64-0.51-1.15-.2-2.23-0.4-3-0.61-1.74-.46-3.64-0.86-5.63-1.18s-4.21-.59-6.44-0.77S742.65,621.76,740.42,621.76Z" transform="translate(-275.96 -21.35)"/><path class="cls-3" d="M792.13,640.13V627.05h11.5v13.07h-11.5Zm0.29,88.49V656.83h11.5v71.79h-11.5Z" transform="translate(-275.96 -21.35)"/><path class="cls-5" d="M805.42,730.12h-14.5V655.33h14.5v74.79Zm-11.5-3h8.5V658.33h-8.5v68.79Zm11.21-85.49h-14.5V625.55h14.5v16.07Zm-11.5-3h8.5V628.55h-8.5v10.07Z" transform="translate(-275.96 -21.35)"/><path class="cls-3" d="M865.57,666.07h-0.89a41.47,41.47,0,0,0-8,.77,32.88,32.88,0,0,0-7.38,2.35,27.8,27.8,0,0,0-6.23,3.89,20.57,20.57,0,0,0-4.64,5.47v51h-11.5V656.36h8.9L838.05,668h0.22a27.1,27.1,0,0,1,4.19-5.31,28.52,28.52,0,0,1,5.6-4.32,28.17,28.17,0,0,1,6.83-2.89,28.58,28.58,0,0,1,7.79-1c0.49,0,1,0,1.52,0s1,0.07,1.37.12v11.48Z" transform="translate(-275.96 -21.35)"/><path class="cls-5" d="M839.92,731.08h-14.5V654.86h11.64l1.83,9.58a29.82,29.82,0,0,1,2.51-2.82,30.15,30.15,0,0,1,5.89-4.54,29.77,29.77,0,0,1,7.19-3,30.19,30.19,0,0,1,8.19-1.1c0.52,0,1.05,0,1.6,0s1.06,0.07,1.49.13l1.31,0.17v14.3h-2.39a40.18,40.18,0,0,0-7.72.74,31.55,31.55,0,0,0-7,2.24,26.44,26.44,0,0,0-5.9,3.68,19.15,19.15,0,0,0-4.1,4.73v52.11Zm-11.5-3h8.5V678.15l0.21-.35a22.18,22.18,0,0,1,5-5.87,29.46,29.46,0,0,1,6.56-4.1,34.57,34.57,0,0,1,7.72-2.46,43.11,43.11,0,0,1,7.69-.8V656c-0.48,0-.94,0-1.39,0a27.22,27.22,0,0,0-7.38,1,26.85,26.85,0,0,0-6.47,2.74,27.14,27.14,0,0,0-5.31,4.09,25.74,25.74,0,0,0-4,5l-0.44.73h-2.31l-2.23-11.63h-6.16v70.22Z" transform="translate(-275.96 -21.35)"/><path class="cls-3" d="M878.56,729.58V619.34h11.5V729.58h-11.5Z" transform="translate(-275.96 -21.35)"/><path class="cls-5" d="M891.56,731.08h-14.5V617.84h14.5V731.08Zm-11.5-3h8.5V620.84h-8.5V728.08Z" transform="translate(-275.96 -21.35)"/><path class="cls-2" d="M276,667.24a14.91,14.91,0,0,0,9.31-3.08,14.12,14.12,0,0,0,4.79-8.05q1.19-5.12,1.26-17.51t0.45-16.32a31.07,31.07,0,0,1,2.48-10,16.48,16.48,0,0,1,11.31-9.49,40.22,40.22,0,0,1,9.2-.74h4.15v11.65h-2.3q-7.72,0-10.24,2.78t-2.52,12.43q0,19.44-.82,24.56-1.34,7.94-4.56,12.24c-2.15,2.87-9.6,5.42-14.2,7.64,5.44,2.28,13.46,5.75,15.9,10.42s3.67,12.33,3.67,23q0,14.47.3,17.21,0.59,5,3,7t9.46,2h2.3v11.65h-4.15q-7.27,0-10.53-1.18a17.66,17.66,0,0,1-7.87-5.53,19.94,19.94,0,0,1-4-9.68q-0.93-5.86-1-19.21t-1.26-18.48a14.3,14.3,0,0,0-4.79-8.09,14.8,14.8,0,0,0-9.31-3.12V667.24Z" transform="translate(-275.96 -21.35)"/><path class="cls-2" d="M954.61,667.08v12.1a14.78,14.78,0,0,0-9.31,3.11,14.29,14.29,0,0,0-4.79,8q-1.18,5.09-1.26,17.47t-0.45,16.32a30.86,30.86,0,0,1-2.48,10.06A16.57,16.57,0,0,1,925,743.65a36.51,36.51,0,0,1-9.2.82h-4.15V732.82h2.3q7.72,0,10.24-2.78t2.52-12.5q0-18.55.67-23.52,1.18-8.24,4.75-13.17a23.14,23.14,0,0,1,10.09-7.68q-8.53-4.08-12-10.79t-3.49-22.67q0-14.47-.37-17.29-0.52-5-2.93-6.94t-9.46-2h-2.3V601.87h4.15q7.27,0,10.54,1.19a17,17,0,0,1,7.87,5.49,20.15,20.15,0,0,1,4,9.72q0.93,5.86,1,19.22t1.26,18.44a14.31,14.31,0,0,0,4.79,8A14.8,14.8,0,0,0,954.61,667.08Z" transform="translate(-275.96 -21.35)"/></svg>